<svg width="326" height="256" viewBox="0 0 326 256" fill="none" xmlns="http://www.w3.org/2000/svg">
<g clip-path="url(#clip0_24_3)">
<path d="M28.3464 28.3464C62.0653 55.7567 89.2632 90.3259 107.969 129.548C126.674 168.771 136.418 211.664 136.495 255.118H145.944C145.915 212.202 136.75 169.785 119.06 130.685C101.369 91.5853 75.5583 56.6993 43.3425 28.3464L28.3464 28.3464Z" fill="white"/>
<path d="M28.3464 56.6929C12.6911 56.6929 -4.57764e-05 44.0018 -4.57764e-05 28.3465C-4.57764e-05 12.6911 12.6911 0 28.3464 0C44.0017 0 56.6929 12.6911 56.6929 28.3465C56.6929 44.0018 44.0017 56.6929 28.3464 56.6929Z" fill="white"/>
<path d="M297.125 28.3464C263.406 55.7567 236.209 90.3259 217.503 129.548C198.798 168.771 189.054 211.664 188.977 255.118H179.528C179.557 212.202 188.721 169.785 206.412 130.685C224.102 91.5853 249.913 56.6993 282.129 28.3464L297.125 28.3464Z" fill="white"/>
<path d="M297.125 56.6929C312.781 56.6929 325.472 44.0018 325.472 28.3465C325.472 12.6911 312.781 0 297.125 0C281.47 0 268.779 12.6911 268.779 28.3465C268.779 44.0018 281.47 56.6929 297.125 56.6929Z" fill="white"/>
</g>
<defs>
<clipPath id="clip0_24_3">
<rect width="325.472" height="255.118" fill="white"/>
</clipPath>
</defs>
</svg>
